<svg width="33" height="32" viewBox="0 0 33 32" fill="none" xmlns="http://www.w3.org/2000/svg">
<g clip-path="url(#clip0_1074_24)">
<path d="M17.378 0.414988C16.524 -0.150012 15.41 -0.137012 14.569 0.448988L1.985 9.21399C1.314 9.68199 0.914001 10.447 0.914001 11.266V20.71C0.914001 21.55 1.335 22.333 2.036 22.796L14.826 31.251C15.662 31.804 16.748 31.804 17.584 31.251L30.628 22.633C31.328 22.17 31.75 21.387 31.75 20.547V11.268C31.75 10.429 31.329 9.64599 30.629 9.18299L17.378 0.414988ZM27.121 10.645L22.3 13.882L17.779 10.594L17.75 4.12699L27.121 10.645ZM14.479 4.13299V10.462L9.846 13.702L5.225 10.603L14.479 4.13299ZM3.958 13.722L6.949 15.726L3.958 17.819V13.722ZM14.558 27.215L5.227 20.957L9.888 17.699L14.558 20.832V27.215ZM12.786 15.674L15.807 13.561L19.326 15.874L16.207 17.969L12.786 15.674ZM17.854 27.215V20.83L22.317 17.839L27.122 20.998L17.854 27.215ZM28.454 17.927L25.286 15.845L28.454 13.72V17.927Z" fill="#F5C0C0"/>
</g>
<defs>
<clipPath id="clip0_1074_24">
<rect width="31.665" height="31.665" fill="white" transform="translate(0.5)"/>
</clipPath>
</defs>
</svg>
