<svg width="484" height="484" viewBox="0 0 484 484" fill="none" xmlns="http://www.w3.org/2000/svg">
<g clip-path="url(#clip0_1074_4)">
<path d="M424.8 57.75H59.6C27 57.75 0.5 84.25 0.5 116.85V366.45C0.5 399.05 27 425.55 59.6 425.55H424.7C457.3 425.55 483.8 399.05 483.8 366.45V116.95C483.9 84.35 457.4 57.75 424.8 57.75ZM456.9 366.45C456.9 384.15 442.5 398.55 424.8 398.55H59.6C41.9 398.55 27.5 384.15 27.5 366.45V116.95C27.5 99.25 41.9 84.85 59.6 84.85H424.7C442.4 84.85 456.8 99.25 456.8 116.95V366.45H456.9Z" fill="#F5C0C0"/>
<path d="M305.3 238.55L423.5 132.55C429 127.55 429.5 119.05 424.5 113.45C419.5 107.95 411 107.45 405.4 112.45L242.4 258.75L210.6 230.35C210.5 230.25 210.4 230.15 210.4 230.05C209.7 229.35 209 228.75 208.2 228.15L78.8 112.35C73.2 107.35 64.7 107.85 59.7 113.45C54.7 119.05 55.2 127.55 60.8 132.55L180.4 239.45L61.3 350.95C55.9 356.05 55.6 364.55 60.7 370.05C63.4 372.85 67 374.35 70.6 374.35C73.9 374.35 77.2 373.15 79.8 370.75L200.7 257.65L233.5 286.95C236.1 289.25 239.3 290.35 242.5 290.35C245.7 290.35 249 289.15 251.5 286.85L285.2 256.65L405.4 370.85C408 373.35 411.4 374.55 414.7 374.55C418.3 374.55 421.8 373.15 424.5 370.35C429.6 364.95 429.4 356.35 424 351.25L305.3 238.55Z" fill="#F5C0C0"/>
</g>
<defs>
<clipPath id="clip0_1074_4">
<rect width="483.3" height="483.3" fill="white" transform="translate(0.5)"/>
</clipPath>
</defs>
</svg>
