<svg width="513" height="512" viewBox="0 0 513 512" fill="none" xmlns="http://www.w3.org/2000/svg">
<g clip-path="url(#clip0_1074_42)">
<path d="M256.5 0C115.115 0 0.5 114.615 0.5 256C0.5 397.385 115.115 512 256.5 512C397.885 512 512.5 397.385 512.5 256C512.5 114.615 397.885 0 256.5 0ZM408.527 408.027C388.767 427.786 365.771 443.294 340.173 454.121C333.671 456.871 327.068 459.285 320.372 461.367V423C320.372 402.833 313.456 388 299.622 378.5C308.29 377.667 316.247 376.5 323.497 375C330.747 373.5 338.415 371.333 346.497 368.5C354.581 365.667 361.831 362.292 368.247 358.375C374.665 354.458 380.831 349.375 386.747 343.125C392.665 336.875 397.622 329.792 401.622 321.875C405.622 313.958 408.79 304.458 411.122 293.375C413.456 282.292 414.622 270.083 414.622 256.75C414.622 230.917 406.206 208.917 389.372 190.75C397.04 170.75 396.206 149 386.872 125.5L380.622 124.75C376.29 124.25 368.497 126.083 357.247 130.25C345.997 134.417 333.372 141.25 319.372 150.75C299.54 145.25 278.956 142.5 257.623 142.5C236.123 142.5 215.623 145.25 196.123 150.75C187.29 144.75 178.915 139.792 170.998 135.875C163.081 131.958 156.748 129.292 151.998 127.875C147.248 126.458 142.831 125.583 138.748 125.25C134.665 124.917 132.04 124.833 130.873 125C129.706 125.167 128.873 125.333 128.373 125.5C119.04 149.167 118.206 170.917 125.873 190.75C109.04 208.917 100.623 230.917 100.623 256.75C100.623 270.083 101.79 282.292 104.123 293.375C106.456 304.458 109.623 313.958 113.623 321.875C117.623 329.792 122.581 336.875 128.498 343.125C134.415 349.375 140.581 354.458 146.998 358.375C153.415 362.292 160.665 365.667 168.748 368.5C176.831 371.333 184.498 373.5 191.748 375C198.998 376.5 206.956 377.667 215.623 378.5C201.956 387.833 195.123 402.667 195.123 423V462.115C187.574 459.868 180.133 457.213 172.823 454.121C147.226 443.294 124.229 427.786 104.47 408.027C84.712 388.269 69.203 365.271 58.377 339.673C47.179 313.195 41.5 285.043 41.5 256C41.5 226.957 47.179 198.805 58.379 172.325C69.206 146.728 84.714 123.731 104.472 103.972C124.23 84.213 147.228 68.705 172.825 57.879C199.305 46.679 227.457 41 256.5 41C285.543 41 313.695 46.679 340.176 57.879C365.774 68.706 388.77 84.214 408.53 103.972C428.288 123.73 443.796 146.728 454.622 172.325C465.82 198.805 471.5 226.957 471.5 256C471.5 285.043 465.82 313.195 454.621 339.675C443.795 365.271 428.285 388.27 408.527 408.027Z" fill="#F5C0C0"/>
</g>
<defs>
<clipPath id="clip0_1074_42">
<rect width="512" height="512" fill="white" transform="translate(0.5)"/>
</clipPath>
</defs>
</svg>
