<svg width="170" height="170" viewBox="0 0 170 170" fill="none" xmlns="http://www.w3.org/2000/svg">
<g clip-path="url(#clip0_1074_60)">
<path d="M122.906 0H47.154C21.429 0 0.5 20.93 0.5 46.655V122.407C0.5 148.133 21.429 169.062 47.154 169.062H122.906C148.633 169.062 169.562 148.132 169.562 122.407V46.655C169.563 20.93 148.633 0 122.906 0ZM154.563 122.407C154.563 139.862 140.362 154.062 122.907 154.062H47.154C29.7 154.063 15.5 139.862 15.5 122.407V46.655C15.5 29.201 29.7 15 47.154 15H122.906C140.361 15 154.562 29.201 154.562 46.655V122.407H154.563Z" fill="#F5C0C0"/>
<path d="M85.031 40.97C61.01 40.97 41.468 60.512 41.468 84.533C41.468 108.553 61.01 128.094 85.031 128.094C109.052 128.094 128.594 108.553 128.594 84.533C128.594 60.512 109.052 40.97 85.031 40.97ZM85.031 113.093C69.282 113.093 56.468 100.281 56.468 84.532C56.468 68.782 69.281 55.969 85.031 55.969C100.781 55.969 113.594 68.782 113.594 84.532C113.594 100.281 100.78 113.093 85.031 113.093Z" fill="#F5C0C0"/>
<path d="M130.421 28.251C127.531 28.251 124.692 29.421 122.651 31.471C120.6 33.511 119.421 36.351 119.421 39.251C119.421 42.142 120.601 44.981 122.651 47.031C124.691 49.071 127.531 50.251 130.421 50.251C133.321 50.251 136.151 49.071 138.201 47.031C140.251 44.981 141.421 42.141 141.421 39.251C141.421 36.351 140.251 33.511 138.201 31.471C136.161 29.421 133.321 28.251 130.421 28.251Z" fill="#F5C0C0"/>
</g>
<defs>
<clipPath id="clip0_1074_60">
<rect width="169.063" height="169.063" fill="white" transform="translate(0.5)"/>
</clipPath>
</defs>
</svg>
