<svg width="431" height="431" viewBox="0 0 431 431" fill="none" xmlns="http://www.w3.org/2000/svg">
<g clip-path="url(#clip0_1074_80)">
<path d="M398.855 0H32.282C14.729 0 0.502014 13.793 0.502014 30.817V399.288C0.502014 416.313 14.734 430.118 32.282 430.118H398.855C416.404 430.118 430.615 416.304 430.615 399.288V30.817C430.615 13.798 416.404 0 398.855 0ZM130.9 360.038H65.913V165.845H130.9V360.038ZM98.413 139.315H97.976C76.183 139.315 62.056 124.411 62.056 105.752C62.056 86.717 76.598 72.217 98.823 72.217C121.05 72.217 134.722 86.713 135.154 105.752C135.154 124.415 121.055 139.315 98.413 139.315ZM365.159 360.038H300.193V256.138C300.193 230.031 290.78 212.217 267.286 212.217C249.313 212.217 238.644 224.235 233.959 235.838C232.223 239.982 231.793 245.778 231.793 251.566V360.034H166.839C166.839 360.034 167.689 184.055 166.839 165.842H231.803V193.373C240.427 180.144 255.838 161.273 290.337 161.273C333.097 161.273 365.159 189.012 365.159 248.687V360.038ZM231.383 193.99C231.494 193.808 231.649 193.589 231.803 193.376V193.99H231.383Z" fill="#F5C0C0"/>
</g>
<defs>
<clipPath id="clip0_1074_80">
<rect width="430.117" height="430.118" fill="white" transform="translate(0.5)"/>
</clipPath>
</defs>
</svg>
