<svg width="613" height="612" viewBox="0 0 613 612" fill="none" xmlns="http://www.w3.org/2000/svg">
<g clip-path="url(#clip0_1074_98)">
<path d="M612.5 116.258C589.975 126.239 565.806 133.008 540.412 136.03C566.341 120.503 586.189 95.875 595.596 66.619C571.274 80.998 544.427 91.439 515.821 97.099C492.914 72.662 460.331 57.441 424.191 57.441C354.857 57.441 298.64 113.658 298.64 182.954C298.64 192.782 299.749 202.381 301.891 211.56C197.565 206.32 105.056 156.337 43.141 80.386C32.318 98.896 26.161 120.464 26.161 143.487C26.161 187.046 48.342 225.48 81.996 247.966C61.421 247.278 42.07 241.618 25.129 232.21V233.778C25.129 294.584 68.42 345.332 125.822 356.882C115.305 359.712 104.215 361.28 92.742 361.28C84.635 361.28 76.795 360.477 69.108 358.947C85.093 408.854 131.444 445.146 186.361 446.141C143.414 479.795 89.262 499.796 30.445 499.796C20.311 499.796 10.329 499.184 0.501007 498.075C56.068 533.756 122.037 554.56 192.939 554.56C423.887 554.56 550.127 363.269 550.127 197.372L549.706 181.119C574.372 163.526 595.711 141.422 612.5 116.258Z" fill="#F5C0C0"/>
</g>
<defs>
<clipPath id="clip0_1074_98">
<rect width="612" height="612" fill="white" transform="translate(0.5)"/>
</clipPath>
</defs>
</svg>
